<svg style="display:block" viewBox="0 732 2048 558.667" width="2048" height="558.667" preserveAspectRatio="none" xmlns="http://www.w3.org/2000/svg"><path fill="#dd9525" d="M68.553 911.556c-31.552-37.454 14.37-76.847 47.444-90.517 48.967-22.36 98.285-25.149 150.973-24.187 53.752.98 192.245 27.122 159.698 109.316 24.487 45.341 38.121 77.262 36.754 129.998-1.082 9.587-3.06 13.951-.187 22.63 4.42 3.358 9.564 11.478 12.388 16.44 18.353 32.256 16.92 72.967-5.68 102.55a89.78 89.78 0 0 1-61.113 35.128c-17.677 2.139-37.77-1.554-53.288-10.271-7.361-.535-21.197-1.965-27.786-.112-4.85 2.076-17.673 5.073-22.933 6.08-62.701 11.938-137.065 6.081-191.13-30.08a189.1 189.1 0 0 1-80.871-122.283c-9.776-51.965 6.74-101.767 35.733-144.692"/><path fill="#af6a25" d="M68.553 911.556c-31.552-37.454 14.37-76.847 47.444-90.517 48.967-22.36 98.285-25.149 150.973-24.187 53.752.98 192.245 27.122 159.698 109.316-17.443 22.001-55.55 45.055-83.717 48.338-3.385.373-6.773.71-10.166.995-2.826 7.784-7.978 15.767-11.49 24.111-7.751 17.297 1.406 35.713-20.482 41.52-25.868 6.852-33.164-40.5-45.758-33.027-22.565 13.368-5.396 62.286-18.21 82.965-10.147 16.377-36.019 15.73-50.997 6.317-29.583-26.374-4.12-85.079-12.591-121.015l-2.135 1.99c-33.512.322-77.67-25.654-102.567-46.806"/><path fill="#fbbe57" d="M122.377 893.469a120.3 120.3 0 0 1 31.694-13.92c21.24-6.057 45.835-5.646 67.88-5.135 51.856 1.202 105.598-8.504 152.772 18.046-6.61 9.724-18.207 13.373-26.223 20.216-9.028 7.697-13.774 31.472-15.715 42.825-2.826 7.784-7.978 15.767-11.49 24.111-7.751 17.297 1.406 35.713-20.482 41.52-25.868 6.852-33.164-40.5-45.758-33.027-22.565 13.368-5.396 62.286-18.21 82.965-10.147 16.377-36.019 15.73-50.997 6.317-29.583-26.374-4.12-85.079-12.591-121.015-2.015-9.14-6.56-33.686-12.844-39.332-9.761-8.771-26.24-13.244-38.036-23.571"/><path fill="#7e4812" d="M122.377 893.469c-7.472-4.004-14.358-13.772-10.746-22.246 2.736-6.419 10.943-11.947 17.212-14.482 67.094-27.119 154.51-28.545 223.41-7.091 11.192 4.343 26.447 10.153 31.843 21.58 3.784 8.008-1.417 18.128-9.373 21.23-47.174-26.55-100.916-16.844-152.771-18.046-22.046-.511-46.64-.922-67.88 5.135a120.3 120.3 0 0 0-31.695 13.92"/><g transform="translate(-19.112 -334.597)scale(1.24348)"><circle cx="335" cy="1172" r="83" fill="#fefefd"/><circle cx="335" cy="1172" r="72" fill="#fd4c34"/><path fill="#fefefd" d="M324 1130h22v31h31v22h-31v31h-22v-31h-31v-22h31z"/></g><text xml:space="preserve" style="font-style:normal;font-variant:normal;font-weight:700;font-stretch:normal;font-size:192px;font-family:sans-serif;-inkscape-font-specification:&quot;sans-serif Bold&quot;;letter-spacing:-5px;writing-mode:lr-tb;direction:ltr;fill:#000" x="508.655" y="943.552"><tspan x="508.655" y="943.552" style="font-size:192px;letter-spacing:-5px;fill:#fd4c34;fill-opacity:1">Laravel</tspan><tspan x="508.655" y="1183.552">Honeypot <tspan style="font-size:192px;letter-spacing:-5px;fill:#fd4c34;fill-opacity:1">Plus</tspan></tspan></text></svg>
